<svg width="495" height="495" viewBox="0 0 495 495" fill="none" xmlns="http://www.w3.org/2000/svg">
<path d="M431.871 62.9653C458.25 89.3444 397.052 193.311 295.182 295.182C193.311 397.053 89.3437 458.251 62.9646 431.872C36.6023 405.51 97.7053 301.658 199.459 199.85C117.26 281.996 34.0365 331.936 13.511 311.41C-7.02579 290.873 42.9796 207.569 125.207 125.326C73.1705 177.343 18.8506 207.355 3.85909 192.364C-11.138 177.367 18.9026 123.011 70.9567 70.9566C123.011 18.9024 177.367 -11.1381 192.364 3.85917C207.355 18.8508 177.344 73.1704 125.326 125.206C207.57 42.9793 290.874 -7.02604 311.41 13.5108C331.936 34.0363 281.997 117.26 199.85 199.459C301.658 97.7056 405.509 36.6031 431.871 62.9653Z" fill="white"/>
<path d="M481.326 183.427C501.863 203.963 451.858 287.267 369.631 369.511C421.666 317.494 475.986 287.482 490.977 302.473C505.975 317.47 475.934 371.826 423.88 423.881C371.826 475.935 317.47 505.975 302.472 490.978C287.481 475.986 317.493 421.666 369.511 369.63C287.268 451.857 203.964 501.863 183.427 481.326C162.885 460.784 212.92 377.444 295.183 295.182C377.445 212.919 460.785 162.885 481.326 183.427Z" fill="white"/>
</svg>
