<svg width="1989" height="296" viewBox="0 0 1989 296" fill="none" xmlns="http://www.w3.org/2000/svg">
<path d="M165.6 -1.14441e-05C180.8 -1.14441e-05 197 1.59999 214.2 4.79998C231.8 7.59998 246 11.8 256.8 17.4C259.6 18.6 261.4 19.8 262.2 21C263 22.2 263.6 24.4 264 27.6L268.8 89.4C268.8 90.6 267.6 91.4 265.2 91.8C263.2 92.2 262 91.6 261.6 90C242.8 36.8 207.2 10.2 154.8 10.2C134.4 10.2 116.4 15.6 100.8 26.4C85.1996 37.2 72.9996 52.4 64.1996 72C55.7996 91.2 51.5996 113 51.5996 137.4C51.5996 162.2 55.9996 186 64.7996 208.8C73.5996 231.2 86.7996 249.6 104.4 264C122.4 278.4 144.2 285.6 169.8 285.6C193 285.6 212.6 279 228.6 265.8C245 252.6 258 232 267.6 204C268 202.4 269.2 201.8 271.2 202.2C273.2 202.6 274.2 203.4 274.2 204.6L267.6 268.2C267.2 271.4 266.6 273.6 265.8 274.8C265 276 262.8 277.4 259.2 279C228.4 289.8 196.4 295.2 163.2 295.2C125.2 295.2 93.7996 287.6 68.9996 272.4C44.5996 257.2 26.9996 238.2 16.1996 215.4C5.39961 192.6 -0.000389516 169.6 -0.000389516 146.4C-0.000389516 118.8 7.19961 94 21.5996 72C35.9996 49.6 55.7996 32 80.9996 19.2C106.6 6.39999 134.8 -1.14441e-05 165.6 -1.14441e-05ZM520.279 292.8C515.479 292.8 510.279 290.6 504.679 286.2C499.479 281.8 494.879 275 490.879 265.8C487.279 256.6 485.479 245 485.479 231V85.8C485.479 61.4 482.279 43.6 475.879 32.4C469.479 21.2 459.279 15.6 445.279 15.6C428.879 15.6 416.479 21.4 408.079 33C400.079 44.6 393.879 59.4 389.479 77.4C385.079 94.6 376.079 103.2 362.479 103.2C354.879 103.2 348.679 101.2 343.879 97.2C339.479 92.8 337.279 87.2 337.279 80.4C337.279 70 344.479 58.6 358.879 46.2C373.679 33.8 391.279 23.4 411.679 15C432.479 6.19999 451.479 1.79998 468.679 1.79998C487.079 1.79998 501.679 7.39998 512.479 18.6C523.679 29.4 529.279 45.8 529.279 67.8V210.6C529.279 229.8 532.079 243 537.679 250.2C543.279 257.4 550.879 261 560.479 261C566.879 261 575.479 258.8 586.279 254.4H586.879C588.479 254.4 589.479 255.4 589.879 257.4C590.679 259 590.279 260.2 588.679 261L525.079 291.6L520.279 292.8ZM387.679 292.2C372.879 292.2 360.679 288 351.079 279.6C341.479 271.2 336.679 261.2 336.679 249.6C336.679 235.6 341.479 224 351.079 214.8C360.679 205.2 377.079 196.2 400.279 187.8L496.279 153L498.079 161.4L423.679 189.6C410.479 194.8 401.079 201 395.479 208.2C389.879 215 387.079 223.2 387.079 232.8C387.079 242.8 390.079 251.2 396.079 258C402.479 264.8 410.079 268.2 418.879 268.2C427.279 268.2 437.279 265.2 448.879 259.2L502.279 232.2L502.879 240.6L448.279 271.8C434.679 279.4 423.279 284.8 414.079 288C405.279 290.8 396.479 292.2 387.679 292.2ZM695.189 237C695.189 249.4 696.589 258.6 699.389 264.6C702.189 270.6 707.389 274.8 714.989 277.2C722.989 279.6 735.389 280.8 752.189 280.8C753.389 280.8 753.989 282 753.989 284.4C753.989 286.8 753.389 288 752.189 288C737.789 288 726.389 287.8 717.989 287.4L673.589 286.8L636.389 287.4C629.589 287.8 620.189 288 608.189 288C607.389 288 606.989 286.8 606.989 284.4C606.989 282 607.389 280.8 608.189 280.8C620.589 280.8 629.789 279.8 635.789 277.8C641.789 275.8 645.789 272 647.789 266.4C650.189 260.4 651.389 251.4 651.389 239.4V55.8C651.389 43.8 650.189 35 647.789 29.4C645.789 23.8 641.789 20 635.789 18C629.789 15.6 620.589 14.4 608.189 14.4C607.389 14.4 606.989 13.2 606.989 10.8C606.989 8.39999 607.389 7.19999 608.189 7.19999L635.789 7.8C651.789 8.59999 664.189 8.99998 672.989 8.99998C683.389 8.99998 694.789 8.39998 707.189 7.19999C711.589 6.79999 716.789 6.39999 722.789 5.99998C729.189 5.59999 736.189 5.39999 743.789 5.39999C810.989 5.39999 844.589 29.2 844.589 76.8C844.589 96 839.589 112.4 829.589 126C819.989 139.2 807.589 149.2 792.389 156C777.189 162.4 761.389 165.6 744.989 165.6C735.789 165.6 728.189 165 722.189 163.8C720.989 163 720.389 161.8 720.389 160.2C720.389 157.4 721.389 156 723.389 156C726.189 156 728.789 156.2 731.189 156.6C733.989 157 736.789 157.2 739.589 157.2C755.589 157.2 768.789 151.6 779.189 140.4C789.989 128.8 795.389 111.8 795.389 89.4C795.389 64.2 789.589 45.4 777.989 33C766.389 20.6 750.189 14.4 729.389 14.4C720.189 14.4 713.189 15.4 708.389 17.4C703.989 19 700.589 22.8 698.189 28.8C696.189 34.8 695.189 44.2 695.189 57V237ZM1086.29 292.8C1081.49 292.8 1076.29 290.6 1070.69 286.2C1065.49 281.8 1060.89 275 1056.89 265.8C1053.29 256.6 1051.49 245 1051.49 231V85.8C1051.49 61.4 1048.29 43.6 1041.89 32.4C1035.49 21.2 1025.29 15.6 1011.29 15.6C994.895 15.6 982.495 21.4 974.095 33C966.095 44.6 959.895 59.4 955.495 77.4C951.095 94.6 942.095 103.2 928.495 103.2C920.895 103.2 914.695 101.2 909.895 97.2C905.495 92.8 903.295 87.2 903.295 80.4C903.295 70 910.495 58.6 924.895 46.2C939.695 33.8 957.295 23.4 977.695 15C998.495 6.19999 1017.49 1.79998 1034.69 1.79998C1053.09 1.79998 1067.69 7.39998 1078.49 18.6C1089.69 29.4 1095.29 45.8 1095.29 67.8V210.6C1095.29 229.8 1098.09 243 1103.69 250.2C1109.29 257.4 1116.89 261 1126.49 261C1132.89 261 1141.49 258.8 1152.29 254.4H1152.89C1154.49 254.4 1155.49 255.4 1155.89 257.4C1156.69 259 1156.29 260.2 1154.69 261L1091.09 291.6L1086.29 292.8ZM953.695 292.2C938.895 292.2 926.695 288 917.095 279.6C907.495 271.2 902.695 261.2 902.695 249.6C902.695 235.6 907.495 224 917.095 214.8C926.695 205.2 943.095 196.2 966.295 187.8L1062.29 153L1064.09 161.4L989.695 189.6C976.495 194.8 967.095 201 961.495 208.2C955.895 215 953.095 223.2 953.095 232.8C953.095 242.8 956.095 251.2 962.095 258C968.495 264.8 976.095 268.2 984.895 268.2C993.295 268.2 1003.29 265.2 1014.89 259.2L1068.29 232.2L1068.89 240.6L1014.29 271.8C1000.69 279.4 989.295 284.8 980.095 288C971.295 290.8 962.495 292.2 953.695 292.2ZM1333.8 132C1366.2 132.8 1391.2 139.2 1408.8 151.2C1426.4 163.2 1435.2 180.4 1435.2 202.8C1435.2 220 1430.2 235.2 1420.2 248.4C1410.6 261.6 1397.2 272 1380 279.6C1362.8 286.8 1343.2 290.4 1321.2 290.4C1310.4 290.4 1298 289.8 1284 288.6C1278.4 288.2 1271.6 287.8 1263.6 287.4C1256 287 1247.8 286.8 1239 286.8L1202.4 287.4C1195.6 287.8 1186.2 288 1174.2 288C1173.4 288 1173 286.8 1173 284.4C1173 282 1173.4 280.8 1174.2 280.8C1187.4 280.8 1197 279.8 1203 277.8C1209 275.8 1213 272 1215 266.4C1217 260.4 1218 251.4 1218 239.4V55.8C1218 43.8 1217 35 1215 29.4C1213 23.8 1209 20 1203 18C1197 15.6 1187.8 14.4 1175.4 14.4C1174.2 14.4 1173.6 13.2 1173.6 10.8C1173.6 8.39999 1174.2 7.19999 1175.4 7.19999L1202.4 7.8C1217.6 8.59999 1229.8 8.99998 1239 8.99998C1249.8 8.99998 1261.2 8.39998 1273.2 7.19999C1277.2 6.79999 1283 6.39999 1290.6 5.99998C1298.6 5.59999 1305.6 5.39999 1311.6 5.39999C1340.4 5.39999 1363 10.6 1379.4 21C1395.8 31.4 1404 46 1404 64.8C1404 82.8 1396.4 98.4 1381.2 111.6C1366 124.8 1345.4 133.6 1319.4 138L1333.8 132ZM1296.6 13.2C1287 13.2 1279.8 14.4 1275 16.8C1270.2 18.8 1266.8 23 1264.8 29.4C1262.8 35.4 1261.8 44.6 1261.8 57V134.4L1243.2 130.8C1251.2 132 1262 132.6 1275.6 132.6C1296.8 132.6 1313 131.6 1324.2 129.6C1335.4 127.2 1344 122.2 1350 114.6C1356 106.6 1359 94.2 1359 77.4C1359 34.6 1338.2 13.2 1296.6 13.2ZM1311 280.8C1362.2 280.8 1387.8 259.4 1387.8 216.6C1387.8 193.8 1379.8 176 1363.8 163.2C1347.8 150 1323 143.4 1289.4 143.4C1269 143.4 1253.6 144.4 1243.2 146.4L1261.8 141V239.4C1261.8 254.6 1265 265.4 1271.4 271.8C1278.2 277.8 1291.4 280.8 1311 280.8ZM1563.52 237C1563.52 248.2 1564.52 256.6 1566.52 262.2C1568.92 267.8 1573.12 271.8 1579.12 274.2C1585.12 276.2 1594.32 277.2 1606.72 277.2H1636.12C1657.32 277.2 1675.12 270.4 1689.52 256.8C1704.32 243.2 1714.72 224.6 1720.72 201C1720.72 200.2 1721.92 200 1724.32 200.4C1726.72 200.4 1727.92 200.8 1727.92 201.6C1725.12 220.8 1723.72 246.6 1723.72 279C1723.72 282.2 1722.92 284.6 1721.32 286.2C1720.12 287.4 1717.72 288 1714.12 288H1477.72C1476.92 288 1476.52 286.8 1476.52 284.4C1476.52 282 1476.92 280.8 1477.72 280.8C1490.12 280.8 1499.12 279.8 1504.72 277.8C1510.32 275.8 1514.12 272 1516.12 266.4C1518.12 260.4 1519.12 251.4 1519.12 239.4V55.8C1519.12 43.8 1518.12 35 1516.12 29.4C1514.12 23.8 1510.12 20 1504.12 18C1498.52 15.6 1489.72 14.4 1477.72 14.4C1476.92 14.4 1476.52 13.2 1476.52 10.8C1476.52 8.39999 1476.92 7.19999 1477.72 7.19999L1505.32 7.8C1521.32 8.59999 1533.72 8.99998 1542.52 8.99998C1552.12 8.99998 1564.92 8.59999 1580.92 7.8L1607.32 7.19999C1608.12 7.19999 1608.52 8.39999 1608.52 10.8C1608.52 13.2 1608.12 14.4 1607.32 14.4C1594.52 14.4 1585.12 15.6 1579.12 18C1573.12 20 1568.92 24 1566.52 30C1564.52 35.6 1563.52 44.4 1563.52 56.4V237ZM1895.23 295.2C1865.63 295.2 1840.43 288.6 1819.63 275.4C1798.83 261.8 1783.23 244.2 1772.83 222.6C1762.43 201 1757.23 177.8 1757.23 153C1757.23 125.4 1763.83 100 1777.03 76.8C1790.63 53.2 1808.63 34.6 1831.03 21C1853.43 7.39998 1877.83 0.599981 1904.23 0.599981C1931.83 0.599981 1952.63 8.19998 1966.63 23.4C1981.03 38.6 1988.23 58.8 1988.23 84C1988.23 88.4 1987.63 91.6 1986.43 93.6C1985.63 95.2 1983.83 96 1981.03 96H1938.43C1938.83 92.8 1939.03 88 1939.03 81.6C1939.03 59.6 1934.43 42.8 1925.23 31.2C1916.43 19.6 1903.03 13.8 1885.03 13.8C1861.03 13.8 1841.63 24.4 1826.83 45.6C1812.03 66.4 1804.63 94.6 1804.63 130.2C1804.63 172.6 1814.83 207.2 1835.23 234C1855.63 260.8 1883.63 274.2 1919.23 274.2C1944.83 274.2 1966.23 268 1983.43 255.6H1984.03C1985.23 255.6 1986.23 256.4 1987.03 258C1988.23 259.2 1988.43 260.4 1987.63 261.6C1959.63 284 1928.83 295.2 1895.23 295.2ZM1786.03 87.6L1955.23 84.6V96L1786.63 96.6L1786.03 87.6Z" fill="white"/>
</svg>
